<svg width="202" height="32" viewBox="0 0 202 32" fill="none" xmlns="http://www.w3.org/2000/svg">
<path fill-rule="evenodd" clip-rule="evenodd" d="M43.7015 25.0165C42.4722 25.0165 41.3682 24.7661 40.3893 24.2653C39.4105 23.7645 38.6024 23.0816 37.965 22.2165C37.9059 22.1311 37.849 22.0445 37.7943 21.9566V24.675H35.4041V0.5H37.7943V11.3478C37.8594 11.2469 37.9277 11.1479 37.9992 11.051C38.6365 10.1632 39.4446 9.48026 40.4235 9.00223C41.4251 8.52419 42.5177 8.28517 43.7015 8.28517C45.1811 8.28517 46.5128 8.66077 47.6965 9.41197C48.8802 10.1404 49.8135 11.142 50.4964 12.4168C51.2021 13.6688 51.5549 15.0915 51.5549 16.685C51.5549 18.2557 51.2135 19.667 50.5305 20.919C49.8476 22.171 48.903 23.1726 47.6965 23.9238C46.5128 24.6522 45.1811 25.0165 43.7015 25.0165ZM43.2917 22.7287C44.4299 22.7287 45.4315 22.4783 46.2965 21.9775C47.1615 21.454 47.8331 20.7369 48.3111 19.8263C48.8119 18.893 49.0623 17.8345 49.0623 16.6508C49.0623 15.4443 48.8119 14.3858 48.3111 13.4753C47.8331 12.5647 47.1615 11.8477 46.2965 11.3241C45.4315 10.8006 44.4413 10.5388 43.3259 10.5388C42.2104 10.5388 41.2202 10.8006 40.3552 11.3241C39.5129 11.8477 38.8528 12.5647 38.3748 13.4753C37.8967 14.3858 37.6577 15.4443 37.6577 16.6508C37.6577 17.8345 37.8967 18.893 38.3748 19.8263C38.8528 20.7369 39.5129 21.454 40.3552 21.9775C41.1975 22.4783 42.1763 22.7287 43.2917 22.7287Z" fill="#796056"/>
<path d="M24.1823 25.0165C22.8848 25.0165 21.7238 24.7205 20.6994 24.1287C19.6751 23.5141 18.867 22.6832 18.2751 21.6361C17.706 20.5889 17.4215 19.3597 17.4215 17.9484V8.62663H19.8458V17.8459C19.8458 18.8248 20.0165 19.6784 20.358 20.4068C20.7222 21.1353 21.2344 21.7044 21.8945 22.1141C22.5547 22.5239 23.3173 22.7287 24.1823 22.7287C25.5253 22.7287 26.5839 22.2848 27.3578 21.397C28.1546 20.5093 28.5529 19.3256 28.5529 17.8459V8.62663H30.9431V17.9484C30.9431 19.3369 30.6586 20.5662 30.0895 21.6361C29.5204 22.706 28.7236 23.5368 27.6993 24.1287C26.6749 24.7205 25.5026 25.0165 24.1823 25.0165Z" fill="#796056"/>
<path d="M4.09746 23.9238C5.37222 24.6523 6.79495 25.0165 8.36565 25.0165C9.57212 25.0165 10.6989 24.7888 11.746 24.3336C12.8159 23.8783 13.7265 23.2295 14.4777 22.3873L12.8729 20.7824C12.3265 21.3971 11.6664 21.8751 10.8924 22.2166C10.1184 22.5352 9.27619 22.6946 8.36565 22.6946C7.22746 22.6946 6.21448 22.4328 5.3267 21.9092C4.43891 21.3857 3.74462 20.6686 3.24382 19.7581C2.74302 18.8248 2.49262 17.7776 2.49262 16.6167C2.49262 15.433 2.74302 14.3972 3.24382 13.5095C3.74462 12.5989 4.43891 11.8819 5.3267 11.3583C6.21448 10.8347 7.22746 10.5729 8.36565 10.5729C9.25343 10.5729 10.0843 10.7437 10.8583 11.0851C11.6322 11.4038 12.2924 11.8705 12.8387 12.4851L14.4094 10.8803C13.681 10.0608 12.7932 9.42338 11.746 8.9681C10.6989 8.51283 9.57212 8.28519 8.36565 8.28519C6.79495 8.28519 5.37222 8.64941 4.09746 9.37785C2.84546 10.1063 1.84386 11.1079 1.09266 12.3827C0.364219 13.6347 0 15.046 0 16.6167C0 18.1874 0.364219 19.6101 1.09266 20.8849C1.84386 22.1596 2.84546 23.1726 4.09746 23.9238Z" fill="#796056"/>
<path fill-rule="evenodd" clip-rule="evenodd" d="M70.169 1.88707C70.4831 1.71522 70.8354 1.62515 71.1934 1.62515C71.5514 1.62515 71.9037 1.71522 72.2178 1.88707L83.9553 8.31336C84.2905 8.49676 84.5703 8.7668 84.7655 9.09527C84.7999 9.15309 84.8314 9.21235 84.86 9.27283C84.8734 9.29968 84.8855 9.32685 84.8965 9.35427C85.0067 9.6149 85.0644 9.89578 85.065 10.1807V22.9421C85.0641 23.3242 84.9607 23.699 84.7655 24.0275C84.5703 24.356 84.2905 24.626 83.9553 24.8094L72.218 31.2356C71.9338 31.3911 71.6181 31.4797 71.2953 31.4952C71.2618 31.4984 71.2278 31.5 71.1934 31.5C71.1589 31.5 71.1248 31.4984 71.0911 31.4952C70.7685 31.4797 70.4532 31.3912 70.169 31.2357L58.4315 24.8094C58.0964 24.626 57.8165 24.3559 57.6213 24.0275C57.4261 23.699 57.3227 23.3242 57.3218 22.9421V10.1807C57.3225 9.89248 57.3815 9.60839 57.4942 9.34522C57.503 9.32381 57.5125 9.30256 57.5227 9.2815C57.5524 9.21801 57.5853 9.15585 57.6213 9.09527C57.8165 8.76688 58.0962 8.4969 58.4313 8.31349L70.169 1.88707ZM72.2605 28.7793L82.9307 22.9374L82.9309 11.4977L72.2605 17.3378V28.7793ZM70.1264 17.3377V28.7793L59.4559 22.9372L59.4561 11.4977L70.1264 17.3377ZM71.1934 3.75924L81.9073 9.62508L71.1935 15.489L60.4796 9.62502L71.1934 3.75924Z" fill="#796056"/>
<path fill-rule="evenodd" clip-rule="evenodd" d="M188.463 23.8897C189.738 24.6409 191.149 25.0165 192.697 25.0165C194.268 25.0165 195.679 24.6409 196.931 23.8897C198.183 23.1385 199.173 22.1369 199.902 20.8849C200.653 19.6101 201.029 18.176 201.029 16.5825C201.029 15.0346 200.653 13.6347 199.902 12.3827C199.173 11.1079 198.183 10.1063 196.931 9.37785C195.679 8.64941 194.268 8.28519 192.697 8.28519C191.149 8.28519 189.738 8.66079 188.463 9.41199C187.211 10.1404 186.21 11.1307 185.458 12.3827C184.73 13.6347 184.366 15.0346 184.366 16.5825C184.366 18.1532 184.73 19.576 185.458 20.8507C186.21 22.1255 187.211 23.1385 188.463 23.8897ZM195.702 21.9092C194.837 22.4328 193.835 22.6946 192.697 22.6946C191.582 22.6946 190.58 22.4328 189.692 21.9092C188.805 21.3857 188.11 20.6686 187.609 19.7581C187.109 18.8248 186.858 17.7663 186.858 16.5825C186.858 15.4216 187.109 14.3972 187.609 13.5095C188.11 12.5989 188.805 11.8819 189.692 11.3583C190.58 10.8347 191.582 10.5729 192.697 10.5729C193.835 10.5729 194.837 10.8347 195.702 11.3583C196.59 11.8819 197.284 12.5989 197.785 13.5095C198.308 14.3972 198.57 15.4216 198.57 16.5825C198.57 17.7435 198.308 18.7906 197.785 19.7239C197.284 20.6572 196.59 21.3857 195.702 21.9092Z" fill="#796056"/>
<path d="M175.869 25.0165C175.004 25.0165 174.174 24.9027 173.377 24.675C172.58 24.4246 171.852 24.0832 171.191 23.6507C170.554 23.2182 169.996 22.706 169.518 22.1141L171.055 20.5434C171.692 21.3174 172.409 21.8979 173.206 22.2848C174.026 22.6491 174.936 22.8312 175.938 22.8312C177.008 22.8312 177.838 22.6263 178.43 22.2166C179.045 21.8068 179.352 21.2377 179.352 20.5093C179.352 19.8264 179.136 19.2914 178.703 18.9044C178.271 18.5175 177.713 18.2101 177.03 17.9825C176.37 17.7549 175.665 17.5386 174.913 17.3337C174.162 17.1061 173.445 16.8329 172.762 16.5143C172.079 16.1728 171.522 15.7061 171.089 15.1143C170.679 14.5224 170.474 13.7485 170.474 12.7924C170.474 11.8819 170.691 11.0965 171.123 10.4364C171.578 9.75345 172.216 9.22989 173.035 8.86567C173.878 8.47869 174.868 8.28519 176.006 8.28519C177.212 8.28519 178.305 8.50145 179.284 8.93396C180.263 9.36647 181.048 10.0038 181.64 10.8461L180.103 12.3827C179.625 11.768 179.022 11.3014 178.294 10.9827C177.588 10.6412 176.791 10.4705 175.904 10.4705C174.879 10.4705 174.094 10.6754 173.548 11.0851C173.024 11.4721 172.762 11.9843 172.762 12.6217C172.762 13.2363 172.978 13.7257 173.411 14.0899C173.843 14.4314 174.39 14.7159 175.05 14.9436C175.733 15.1484 176.45 15.3647 177.201 15.5923C177.952 15.7972 178.669 16.0817 179.352 16.446C180.035 16.7874 180.581 17.2655 180.991 17.8801C181.424 18.4719 181.64 19.28 181.64 20.3044C181.64 21.7385 181.116 22.8881 180.069 23.7531C179.045 24.5954 177.645 25.0165 175.869 25.0165Z" fill="#796056"/>
<path d="M158.905 24.675C159.702 24.9027 160.533 25.0165 161.398 25.0165C163.173 25.0165 164.573 24.5954 165.597 23.7531C166.645 22.8881 167.168 21.7385 167.168 20.3044C167.168 19.28 166.952 18.4719 166.519 17.8801C166.11 17.2655 165.563 16.7874 164.88 16.446C164.198 16.0817 163.48 15.7972 162.729 15.5923C161.978 15.3647 161.261 15.1484 160.578 14.9436C159.918 14.7159 159.372 14.4314 158.939 14.0899C158.507 13.7257 158.29 13.2363 158.29 12.6217C158.29 11.9843 158.552 11.4721 159.076 11.0851C159.622 10.6754 160.407 10.4705 161.432 10.4705C162.32 10.4705 163.116 10.6412 163.822 10.9827C164.55 11.3014 165.154 11.768 165.632 12.3827L167.168 10.8461C166.576 10.0038 165.791 9.36647 164.812 8.93396C163.833 8.50145 162.741 8.28519 161.534 8.28519C160.396 8.28519 159.406 8.47869 158.564 8.86567C157.744 9.22989 157.107 9.75345 156.651 10.4364C156.219 11.0965 156.003 11.8819 156.003 12.7924C156.003 13.7485 156.207 14.5224 156.617 15.1143C157.05 15.7061 157.607 16.1728 158.29 16.5143C158.973 16.8329 159.69 17.1061 160.442 17.3337C161.193 17.5386 161.898 17.7549 162.559 17.9825C163.241 18.2101 163.799 18.5175 164.232 18.9044C164.664 19.2914 164.88 19.8264 164.88 20.5093C164.88 21.2377 164.573 21.8068 163.958 22.2166C163.367 22.6263 162.536 22.8312 161.466 22.8312C160.464 22.8312 159.554 22.6491 158.734 22.2848C157.938 21.8979 157.22 21.3174 156.583 20.5434L155.047 22.1141C155.525 22.706 156.082 23.2182 156.72 23.6507C157.38 24.0832 158.108 24.4246 158.905 24.675Z" fill="#796056"/>
<path fill-rule="evenodd" clip-rule="evenodd" d="M145.517 25.0165C143.901 25.0165 142.455 24.6523 141.18 23.9238C139.906 23.1954 138.893 22.1938 138.141 20.919C137.413 19.6443 137.049 18.2101 137.049 16.6167C137.049 15.046 137.413 13.6347 138.141 12.3827C138.87 11.1079 139.86 10.1063 141.112 9.37785C142.364 8.64941 143.764 8.28519 145.312 8.28519C146.769 8.28519 148.055 8.61527 149.17 9.27541C150.309 9.93556 151.196 10.8575 151.834 12.0412C152.494 13.2021 152.824 14.5452 152.824 16.0704C152.824 16.2525 152.813 16.4687 152.79 16.7191C152.767 16.9468 152.722 17.2199 152.653 17.5386H139.497C139.597 18.367 139.829 19.1182 140.19 19.7922C140.714 20.7255 141.431 21.454 142.341 21.9775C143.275 22.5011 144.345 22.7629 145.551 22.7629C146.53 22.7629 147.429 22.5922 148.249 22.2507C149.068 21.8865 149.762 21.3515 150.331 20.6459L151.868 22.2166C151.117 23.1043 150.183 23.7986 149.068 24.2994C147.975 24.7775 146.792 25.0165 145.517 25.0165ZM140.156 13.3729C139.821 13.9948 139.604 14.7004 139.503 15.4899H150.484C150.425 14.623 150.226 13.8604 149.888 13.2021C149.478 12.3371 148.875 11.677 148.078 11.2217C147.304 10.7437 146.359 10.5047 145.244 10.5047C144.083 10.5047 143.07 10.7551 142.205 11.2559C141.34 11.7567 140.657 12.4623 140.156 13.3729Z" fill="#796056"/>
<path d="M125.136 24.675H127.526V15.3192C127.526 13.7485 127.913 12.5648 128.687 11.768C129.461 10.9485 130.463 10.5388 131.692 10.5388C132.284 10.5388 132.807 10.6299 133.263 10.812C133.741 10.9941 134.173 11.3014 134.56 11.7339L136.131 10.0608C135.562 9.44614 134.947 9.00225 134.287 8.72909C133.627 8.43316 132.898 8.28519 132.102 8.28519C130.372 8.28519 129.006 8.87705 128.004 10.0608C127.829 10.2724 127.67 10.4974 127.526 10.736V8.62665H125.136V24.675Z" fill="#796056"/>
<path fill-rule="evenodd" clip-rule="evenodd" d="M113.46 25.0165C112.23 25.0165 111.126 24.7661 110.148 24.2653C109.169 23.7645 108.361 23.0816 107.723 22.2166C107.664 22.1312 107.607 22.0445 107.552 21.9566V31.4358H105.162V8.62665H107.552V11.3478C107.618 11.2469 107.686 11.1479 107.757 11.051C108.395 10.1632 109.203 9.48029 110.182 9.00225C111.183 8.52421 112.276 8.28519 113.46 8.28519C114.939 8.28519 116.271 8.66079 117.455 9.41199C118.638 10.1404 119.572 11.142 120.255 12.4168C120.96 13.6688 121.313 15.0915 121.313 16.685C121.313 18.2557 120.972 19.667 120.289 20.919C119.606 22.171 118.661 23.1726 117.455 23.9238C116.271 24.6523 114.939 25.0165 113.46 25.0165ZM113.05 22.7287C114.188 22.7287 115.19 22.4783 116.055 21.9775C116.92 21.454 117.591 20.7369 118.069 19.8264C118.57 18.8931 118.82 17.8345 118.82 16.6508C118.82 15.4444 118.57 14.3859 118.069 13.4753C117.591 12.5648 116.92 11.8477 116.055 11.3241C115.19 10.8006 114.199 10.5388 113.084 10.5388C111.969 10.5388 110.978 10.8006 110.113 11.3241C109.271 11.8477 108.611 12.5648 108.133 13.4753C107.655 14.3859 107.416 15.4444 107.416 16.6508C107.416 17.8345 107.655 18.8931 108.133 19.8264C108.611 20.7369 109.271 21.454 110.113 21.9775C110.956 22.4783 111.934 22.7287 113.05 22.7287Z" fill="#796056"/>
<path d="M93.1149 24.675C93.9116 24.9027 94.7425 25.0165 95.6075 25.0165C97.3831 25.0165 98.783 24.5954 99.8074 23.7531C100.855 22.8881 101.378 21.7385 101.378 20.3044C101.378 19.28 101.162 18.4719 100.729 17.8801C100.32 17.2655 99.7733 16.7874 99.0903 16.446C98.4074 16.0817 97.6904 15.7972 96.9392 15.5923C96.188 15.3647 95.4709 15.1484 94.788 14.9436C94.1279 14.7159 93.5815 14.4314 93.149 14.0899C92.7165 13.7257 92.5003 13.2363 92.5003 12.6217C92.5003 11.9843 92.762 11.4721 93.2856 11.0851C93.8319 10.6754 94.6173 10.4705 95.6416 10.4705C96.5294 10.4705 97.3262 10.6412 98.0318 10.9827C98.7603 11.3014 99.3635 11.768 99.8415 12.3827L101.378 10.8461C100.786 10.0038 100.001 9.36647 99.022 8.93396C98.0432 8.50145 96.9505 8.28519 95.7441 8.28519C94.6059 8.28519 93.6157 8.47869 92.7734 8.86567C91.9539 9.22989 91.3165 9.75345 90.8613 10.4364C90.4288 11.0965 90.2125 11.8819 90.2125 12.7924C90.2125 13.7485 90.4174 14.5224 90.8271 15.1143C91.2596 15.7061 91.8173 16.1728 92.5003 16.5143C93.1832 16.8329 93.9002 17.1061 94.6514 17.3337C95.4026 17.5386 96.1083 17.7549 96.7684 17.9825C97.4514 18.2101 98.0091 18.5175 98.4416 18.9044C98.8741 19.2914 99.0903 19.8264 99.0903 20.5093C99.0903 21.2377 98.783 21.8068 98.1684 22.2166C97.5766 22.6263 96.7457 22.8312 95.6758 22.8312C94.6742 22.8312 93.7636 22.6491 92.9441 22.2848C92.1474 21.8979 91.4304 21.3174 90.793 20.5434L89.2564 22.1141C89.7345 22.706 90.2922 23.2182 90.9296 23.6507C91.5897 24.0832 92.3181 24.4246 93.1149 24.675Z" fill="#796056"/>
</svg>
