<svg width="427" height="66" viewBox="0 0 427 66" fill="none" xmlns="http://www.w3.org/2000/svg">
<path fill-rule="evenodd" clip-rule="evenodd" d="M92.8252 52.1963C90.2142 52.1963 87.8691 51.6632 85.79 50.597C83.7109 49.5308 81.9944 48.0769 80.6405 46.2352C80.515 46.0534 80.3941 45.8689 80.2779 45.6817V51.4694H75.201V0H80.2779V23.0953C80.4163 22.8804 80.5613 22.6697 80.7131 22.4633C82.0669 20.5732 83.7834 19.1193 85.8625 18.1015C87.99 17.0838 90.3109 16.5749 92.8252 16.5749C95.968 16.5749 98.7966 17.3745 101.311 18.9739C103.825 20.5247 105.808 22.6572 107.258 25.3712C108.757 28.0368 109.507 31.0658 109.507 34.4583C109.507 37.8024 108.781 40.8072 107.331 43.4727C105.88 46.1383 103.874 48.2707 101.311 49.87C98.7966 51.4209 95.968 52.1963 92.8252 52.1963ZM91.9548 47.3257C94.3724 47.3257 96.4999 46.7925 98.3373 45.7263C100.175 44.6116 101.601 43.085 102.616 41.1464C103.68 39.1594 104.212 36.9058 104.212 34.3856C104.212 31.817 103.68 29.5634 102.616 27.6248C101.601 25.6862 100.175 24.1596 98.3373 23.0449C96.4999 21.9302 94.3966 21.3729 92.0274 21.3729C89.6581 21.3729 87.5548 21.9302 85.7175 23.0449C83.9285 24.1596 82.5263 25.6862 81.5109 27.6248C80.4955 29.5634 79.9878 31.817 79.9878 34.3856C79.9878 36.9058 80.4955 39.1594 81.5109 41.1464C82.5263 43.085 83.9285 44.6116 85.7175 45.7263C87.5065 46.7925 89.5856 47.3257 91.9548 47.3257Z" fill="#F6F2F1"/>
<path d="M51.365 52.1964C48.6089 52.1964 46.143 51.5663 43.9672 50.3062C41.7914 48.9977 40.0749 47.2287 38.8177 44.9994C37.6089 42.77 37.0045 40.1529 37.0045 37.1481V17.3019H42.154V36.93C42.154 39.014 42.5166 40.8314 43.2419 42.3823C44.0155 43.9332 45.1034 45.1448 46.5056 46.0171C47.9078 46.8895 49.5276 47.3257 51.365 47.3257C54.2177 47.3257 56.4661 46.3806 58.1101 44.4905C59.8024 42.6004 60.6485 40.0802 60.6485 36.93V17.3019H65.7255V37.1481C65.7255 40.1045 65.1211 42.7215 63.9123 44.9994C62.7035 47.2772 61.0112 49.0462 58.8353 50.3062C56.6595 51.5663 54.1694 52.1964 51.365 52.1964Z" fill="#F6F2F1"/>
<path d="M8.70331 49.8701C11.411 51.421 14.433 52.1964 17.7693 52.1964C20.3319 52.1964 22.7253 51.7117 24.9495 50.7425C27.222 49.7732 29.1561 48.3919 30.7517 46.5987L27.3429 43.182C26.1825 44.4905 24.7803 45.5083 23.1363 46.2352C21.4923 46.9137 19.7033 47.253 17.7693 47.253C15.3517 47.253 13.2 46.6957 11.3143 45.581C9.42859 44.4663 7.95386 42.9397 6.89012 41.0011C5.82638 39.014 5.29451 36.7847 5.29451 34.313C5.29451 31.7928 5.82638 29.5877 6.89012 27.6975C7.95386 25.759 9.42859 24.2323 11.3143 23.1176C13.2 22.003 15.3517 21.4456 17.7693 21.4456C19.655 21.4456 21.4198 21.8091 23.0638 22.5361C24.7077 23.2146 26.1099 24.2081 27.2704 25.5166L30.6066 22.0999C29.0594 20.3552 27.1737 18.9982 24.9495 18.0289C22.7253 17.0596 20.3319 16.5749 17.7693 16.5749C14.433 16.5749 11.411 17.3504 8.70331 18.9012C6.04397 20.4521 3.91649 22.5845 2.32088 25.2986C0.773628 27.9641 0 30.9689 0 34.313C0 37.657 0.773628 40.6861 2.32088 43.4001C3.91649 46.1141 6.04397 48.2708 8.70331 49.8701Z" fill="#F6F2F1"/>
<path fill-rule="evenodd" clip-rule="evenodd" d="M149.044 2.95312C149.711 2.58724 150.46 2.39548 151.22 2.39548C151.981 2.39548 152.729 2.58724 153.396 2.95312L178.327 16.6349C179.039 17.0254 179.634 17.6003 180.048 18.2996C180.121 18.4227 180.188 18.5489 180.249 18.6776C180.277 18.7348 180.303 18.7927 180.326 18.851C180.561 19.4059 180.683 20.0039 180.684 20.6105V47.7799C180.683 48.5934 180.463 49.3915 180.048 50.0908C179.634 50.7901 179.039 51.365 178.327 51.7555L153.396 65.437C152.793 65.7681 152.122 65.9568 151.437 65.9897C151.365 65.9965 151.293 66 151.22 66C151.147 66 151.074 65.9965 151.003 65.9897C150.318 65.9568 149.648 65.7683 149.044 65.4373L124.113 51.7555C123.401 51.365 122.807 50.7899 122.392 50.0908C121.977 49.3915 121.758 48.5934 121.756 47.7799V20.6105C121.757 19.9969 121.883 19.3921 122.122 18.8318C122.141 18.7862 122.161 18.7409 122.183 18.6961C122.246 18.5609 122.316 18.4286 122.392 18.2996C122.807 17.6005 123.401 17.0257 124.112 16.6352L149.044 2.95312ZM153.487 60.2076L176.151 47.7699L176.151 23.4144L153.487 35.8483V60.2076ZM148.954 35.8481V60.2076L126.289 47.7696L126.289 23.4144L148.954 35.8481ZM151.22 6.93903L173.977 19.4276L151.22 31.912L128.463 19.4275L151.22 6.93903Z" fill="#F6F2F1"/>
<path fill-rule="evenodd" clip-rule="evenodd" d="M400.31 49.7974C403.017 51.3967 406.015 52.1964 409.303 52.1964C412.64 52.1964 415.637 51.3967 418.297 49.7974C420.956 48.1981 423.059 46.0656 424.607 43.4001C426.202 40.6861 427 37.6328 427 34.2403C427 30.9447 426.202 27.9641 424.607 25.2986C423.059 22.5845 420.956 20.4521 418.297 18.9012C415.637 17.3504 412.64 16.5749 409.303 16.5749C406.015 16.5749 403.017 17.3746 400.31 18.9739C397.65 20.5248 395.523 22.633 393.927 25.2986C392.38 27.9641 391.607 30.9447 391.607 34.2403C391.607 37.5843 392.38 40.6134 393.927 43.3274C395.523 46.0414 397.65 48.1981 400.31 49.7974ZM415.686 45.581C413.848 46.6957 411.721 47.253 409.303 47.253C406.934 47.253 404.806 46.6957 402.921 45.581C401.035 44.4663 399.56 42.9397 398.497 41.0011C397.433 39.014 396.901 36.7604 396.901 34.2403C396.901 31.7686 397.433 29.5877 398.497 27.6975C399.56 25.759 401.035 24.2323 402.921 23.1176C404.806 22.003 406.934 21.4456 409.303 21.4456C411.721 21.4456 413.848 22.003 415.686 23.1176C417.571 24.2323 419.046 25.759 420.11 27.6975C421.222 29.5877 421.778 31.7686 421.778 34.2403C421.778 36.712 421.222 38.9413 420.11 40.9284C419.046 42.9154 417.571 44.4663 415.686 45.581Z" fill="#F6F2F1"/>
<path d="M373.56 52.1964C371.722 52.1964 369.958 51.9541 368.265 51.4694C366.573 50.9363 365.026 50.2093 363.624 49.2885C362.27 48.3677 361.085 47.2772 360.07 46.0172L363.333 42.6731C364.687 44.3209 366.21 45.5567 367.903 46.3806C369.643 47.1561 371.577 47.5438 373.705 47.5438C375.977 47.5438 377.742 47.1076 378.999 46.2352C380.305 45.3629 380.958 44.1513 380.958 42.6004C380.958 41.1465 380.498 40.0075 379.58 39.1837C378.661 38.3598 377.476 37.7055 376.026 37.2208C374.624 36.7362 373.125 36.2758 371.529 35.8396C369.933 35.355 368.41 34.7734 366.96 34.0949C365.509 33.3679 364.325 32.3744 363.406 31.1143C362.536 29.8542 362.1 28.2064 362.1 26.1709C362.1 24.2323 362.56 22.5603 363.479 21.1548C364.446 19.7009 365.799 18.5862 367.54 17.8108C369.329 16.9869 371.432 16.5749 373.85 16.5749C376.413 16.5749 378.733 17.0353 380.813 17.9562C382.892 18.877 384.56 20.234 385.817 22.0272L382.553 25.2986C381.538 23.99 380.257 22.9965 378.709 22.318C377.21 21.591 375.518 21.2275 373.632 21.2275C371.457 21.2275 369.788 21.6637 368.628 22.5361C367.516 23.36 366.96 24.4504 366.96 25.8074C366.96 27.116 367.419 28.158 368.338 28.9334C369.257 29.6604 370.417 30.2662 371.819 30.7508C373.27 31.187 374.793 31.6474 376.388 32.1321C377.984 32.5682 379.507 33.174 380.958 33.9495C382.408 34.6764 383.569 35.6942 384.439 37.0027C385.358 38.2628 385.817 39.9833 385.817 42.1642C385.817 45.2175 384.705 47.665 382.481 49.5066C380.305 51.2998 377.331 52.1964 373.56 52.1964Z" fill="#F6F2F1"/>
<path d="M337.526 51.4694C339.218 51.9541 340.983 52.1964 342.821 52.1964C346.592 52.1964 349.566 51.2998 351.742 49.5066C353.966 47.665 355.078 45.2175 355.078 42.1642C355.078 39.9833 354.618 38.2628 353.7 37.0027C352.829 35.6942 351.669 34.6764 350.218 33.9495C348.768 33.174 347.245 32.5682 345.649 32.1321C344.054 31.6474 342.531 31.187 341.08 30.7508C339.678 30.2662 338.517 29.6604 337.599 28.9334C336.68 28.158 336.221 27.116 336.221 25.8074C336.221 24.4504 336.777 23.36 337.889 22.5361C339.049 21.6637 340.717 21.2275 342.893 21.2275C344.779 21.2275 346.471 21.591 347.97 22.318C349.517 22.9965 350.799 23.99 351.814 25.2986L355.078 22.0272C353.821 20.234 352.152 18.877 350.073 17.9562C347.994 17.0353 345.673 16.5749 343.111 16.5749C340.693 16.5749 338.59 16.9869 336.801 17.8108C335.06 18.5862 333.706 19.7009 332.739 21.1548C331.821 22.5603 331.361 24.2323 331.361 26.1709C331.361 28.2064 331.796 29.8542 332.667 31.1143C333.585 32.3744 334.77 33.3679 336.221 34.0949C337.671 34.7734 339.194 35.355 340.79 35.8396C342.385 36.2758 343.884 36.7362 345.287 37.2208C346.737 37.7055 347.922 38.3598 348.84 39.1837C349.759 40.0075 350.218 41.1465 350.218 42.6004C350.218 44.1513 349.566 45.3629 348.26 46.2352C347.003 47.1076 345.238 47.5438 342.966 47.5438C340.838 47.5438 338.904 47.1561 337.163 46.3806C335.471 45.5567 333.948 44.3209 332.594 42.6731L329.33 46.0172C330.346 47.2772 331.53 48.3677 332.884 49.2885C334.286 50.2093 335.834 50.9363 337.526 51.4694Z" fill="#F6F2F1"/>
<path fill-rule="evenodd" clip-rule="evenodd" d="M309.089 52.1964C305.656 52.1964 302.586 51.421 299.878 49.8701C297.17 48.3192 295.018 46.1868 293.423 43.4728C291.876 40.7588 291.102 37.7055 291.102 34.313C291.102 30.9689 291.876 27.9641 293.423 25.2986C294.97 22.5845 297.073 20.4521 299.733 18.9012C302.392 17.3504 305.366 16.5749 308.654 16.5749C311.748 16.5749 314.48 17.2777 316.849 18.6831C319.267 20.0886 321.153 22.0514 322.506 24.5716C323.909 27.0433 324.61 29.9027 324.61 33.1498C324.61 33.5375 324.586 33.9979 324.537 34.5311C324.489 35.0157 324.392 35.5973 324.247 36.2758H296.302C296.515 38.0394 297.006 39.6387 297.775 41.0738C298.887 43.0608 300.41 44.6117 302.344 45.7264C304.326 46.8411 306.599 47.3984 309.161 47.3984C311.24 47.3984 313.15 47.0349 314.891 46.3079C316.632 45.5325 318.106 44.3936 319.315 42.8912L322.579 46.2352C320.983 48.1254 319.001 49.6035 316.632 50.6698C314.311 51.6875 311.796 52.1964 309.089 52.1964ZM297.702 27.4068C296.991 28.7308 296.529 30.2332 296.315 31.914H319.64C319.513 30.0684 319.09 28.4448 318.372 27.0433C317.502 25.2016 316.221 23.7962 314.528 22.8269C312.884 21.8091 310.878 21.3002 308.509 21.3002C306.043 21.3002 303.891 21.8333 302.054 22.8996C300.216 23.9658 298.766 25.4682 297.702 27.4068Z" fill="#F6F2F1"/>
<path d="M265.798 51.4694H270.875V31.5505C270.875 28.2064 271.697 25.6863 273.341 23.99C274.985 22.2453 277.113 21.3729 279.724 21.3729C280.981 21.3729 282.093 21.5668 283.06 21.9545C284.075 22.3422 284.994 22.9965 285.816 23.9173L289.152 20.3552C287.943 19.0466 286.638 18.1016 285.236 17.52C283.834 16.8899 282.286 16.5749 280.594 16.5749C276.919 16.5749 274.018 17.835 271.891 20.3552C271.519 20.8057 271.181 21.2849 270.875 21.7927V17.3019H265.798V51.4694Z" fill="#F6F2F1"/>
<path fill-rule="evenodd" clip-rule="evenodd" d="M240.997 52.1964C238.386 52.1964 236.041 51.6633 233.962 50.5971C231.882 49.5308 230.166 48.0769 228.812 46.2352C228.687 46.0534 228.566 45.8689 228.45 45.6817V65.8634H223.373V17.3019H228.45V23.0954C228.588 22.8804 228.733 22.6698 228.885 22.4634C230.239 20.5733 231.955 19.1193 234.034 18.1016C236.162 17.0838 238.482 16.5749 240.997 16.5749C244.14 16.5749 246.968 17.3746 249.483 18.9739C251.997 20.5248 253.979 22.6572 255.43 25.3712C256.929 28.0368 257.678 31.0658 257.678 34.4584C257.678 37.8024 256.953 40.8072 255.502 43.4728C254.052 46.1383 252.045 48.2708 249.483 49.8701C246.968 51.421 244.14 52.1964 240.997 52.1964ZM240.126 47.3257C242.544 47.3257 244.672 46.7926 246.509 45.7264C248.346 44.6117 249.773 43.085 250.788 41.1465C251.852 39.1594 252.384 36.9058 252.384 34.3857C252.384 31.817 251.852 29.5634 250.788 27.6249C249.773 25.6863 248.346 24.1596 246.509 23.0449C244.672 21.9303 242.568 21.3729 240.199 21.3729C237.83 21.3729 235.726 21.9303 233.889 23.0449C232.1 24.1596 230.698 25.6863 229.682 27.6249C228.667 29.5634 228.159 31.817 228.159 34.3857C228.159 36.9058 228.667 39.1594 229.682 41.1465C230.698 43.085 232.1 44.6117 233.889 45.7264C235.678 46.7926 237.757 47.3257 240.126 47.3257Z" fill="#F6F2F1"/>
<path d="M197.783 51.4694C199.475 51.9541 201.24 52.1964 203.077 52.1964C206.849 52.1964 209.823 51.2998 211.998 49.5066C214.223 47.665 215.335 45.2175 215.335 42.1642C215.335 39.9833 214.875 38.2628 213.957 37.0027C213.086 35.6942 211.926 34.6764 210.475 33.9495C209.025 33.174 207.502 32.5682 205.906 32.1321C204.311 31.6474 202.787 31.187 201.337 30.7508C199.935 30.2662 198.774 29.6604 197.856 28.9334C196.937 28.158 196.477 27.116 196.477 25.8074C196.477 24.4504 197.034 23.36 198.146 22.5361C199.306 21.6637 200.974 21.2275 203.15 21.2275C205.036 21.2275 206.728 21.591 208.227 22.318C209.774 22.9965 211.056 23.99 212.071 25.2986L215.335 22.0272C214.078 20.234 212.409 18.877 210.33 17.9562C208.251 17.0353 205.93 16.5749 203.368 16.5749C200.95 16.5749 198.847 16.9869 197.058 17.8108C195.317 18.5862 193.963 19.7009 192.996 21.1548C192.077 22.5603 191.618 24.2323 191.618 26.1709C191.618 28.2064 192.053 29.8542 192.924 31.1143C193.842 32.3744 195.027 33.3679 196.477 34.0949C197.928 34.7734 199.451 35.355 201.047 35.8396C202.642 36.2758 204.141 36.7362 205.543 37.2208C206.994 37.7055 208.179 38.3598 209.097 39.1837C210.016 40.0075 210.475 41.1465 210.475 42.6004C210.475 44.1513 209.823 45.3629 208.517 46.2352C207.26 47.1076 205.495 47.5438 203.223 47.5438C201.095 47.5438 199.161 47.1561 197.42 46.3806C195.728 45.5567 194.205 44.3209 192.851 42.6731L189.587 46.0172C190.603 47.2772 191.787 48.3677 193.141 49.2885C194.543 50.2093 196.091 50.9363 197.783 51.4694Z" fill="#F6F2F1"/>
</svg>
